<mxfile host="app.diagrams.net" agent="Mozilla/5.0 (Macintosh; Intel Mac OS X 10_15_7) AppleWebKit/605.1.15 (KHTML, like Gecko) Version/16.6 Safari/605.1.15" version="24.7.6">
  <diagram name="Page-1" id="XsUpKN5bkYY6bdaOg-o0">
    <mxGraphModel dx="1987" dy="2335" grid="1" gridSize="10" guides="1" tooltips="1" connect="1" arrows="1" fold="1" page="1" pageScale="1" pageWidth="850" pageHeight="1100" math="0" shadow="0">
      <root>
        <mxCell id="0" />
        <mxCell id="1" parent="0" />
        <mxCell id="Wbn5nG5s3XOXVzn4nIWE-1" value="Kafka Topics&lt;div&gt;&lt;br&gt;&lt;/div&gt;&lt;div&gt;&lt;br&gt;&lt;/div&gt;&lt;div&gt;&lt;br&gt;&lt;/div&gt;&lt;div&gt;&lt;br&gt;&lt;/div&gt;&lt;div&gt;&lt;br&gt;&lt;/div&gt;&lt;div&gt;&lt;br&gt;&lt;/div&gt;" style="rounded=0;whiteSpace=wrap;html=1;dashed=1;fillColor=#f5f5f5;fontColor=#333333;strokeColor=#666666;" vertex="1" parent="1">
          <mxGeometry x="-280" y="40" width="400" height="140" as="geometry" />
        </mxCell>
        <mxCell id="AOcJWjodGGVIR-0718zk-1" value="&lt;div&gt;Apache Superset&lt;br&gt;&lt;/div&gt;&lt;div&gt;Dashboard&lt;/div&gt;" style="rounded=0;whiteSpace=wrap;html=1;fillColor=#dae8fc;strokeColor=#6c8ebf;" parent="1" vertex="1">
          <mxGeometry x="170" y="-100" width="520" height="100" as="geometry" />
        </mxCell>
        <mxCell id="AOcJWjodGGVIR-0718zk-49" style="edgeStyle=orthogonalEdgeStyle;rounded=0;orthogonalLoop=1;jettySize=auto;html=1;exitX=0;exitY=0.75;exitDx=0;exitDy=0;entryX=1;entryY=0.75;entryDx=0;entryDy=0;" parent="1" source="AOcJWjodGGVIR-0718zk-2" target="AOcJWjodGGVIR-0718zk-17" edge="1">
          <mxGeometry relative="1" as="geometry">
            <mxPoint x="260" y="300" as="sourcePoint" />
            <mxPoint x="80" y="300" as="targetPoint" />
          </mxGeometry>
        </mxCell>
        <mxCell id="AOcJWjodGGVIR-0718zk-55" style="edgeStyle=orthogonalEdgeStyle;rounded=0;orthogonalLoop=1;jettySize=auto;html=1;exitX=1;exitY=0.5;exitDx=0;exitDy=0;entryX=0;entryY=0.5;entryDx=0;entryDy=0;" parent="1" source="AOcJWjodGGVIR-0718zk-2" target="AOcJWjodGGVIR-0718zk-54" edge="1">
          <mxGeometry relative="1" as="geometry" />
        </mxCell>
        <mxCell id="AOcJWjodGGVIR-0718zk-2" value="Clickhouse server&lt;div&gt;OLAP Datasource&lt;/div&gt;" style="rounded=0;whiteSpace=wrap;html=1;fillColor=#d5e8d4;strokeColor=#82b366;" parent="1" vertex="1">
          <mxGeometry x="340" y="240" width="120" height="80" as="geometry" />
        </mxCell>
        <mxCell id="AOcJWjodGGVIR-0718zk-3" style="edgeStyle=orthogonalEdgeStyle;rounded=0;orthogonalLoop=1;jettySize=auto;html=1;exitX=0;exitY=0.5;exitDx=0;exitDy=0;entryX=0.5;entryY=1;entryDx=0;entryDy=0;" parent="1" source="AOcJWjodGGVIR-0718zk-5" target="AOcJWjodGGVIR-0718zk-17" edge="1">
          <mxGeometry relative="1" as="geometry" />
        </mxCell>
        <mxCell id="AOcJWjodGGVIR-0718zk-4" value="Scan Buckets for unprocessed data" style="edgeLabel;html=1;align=center;verticalAlign=middle;resizable=0;points=[];" parent="AOcJWjodGGVIR-0718zk-3" vertex="1" connectable="0">
          <mxGeometry x="-0.0806" y="-2" relative="1" as="geometry">
            <mxPoint as="offset" />
          </mxGeometry>
        </mxCell>
        <mxCell id="AOcJWjodGGVIR-0718zk-5" value="Min.IO&lt;div&gt;Distributed S3&lt;/div&gt;" style="rounded=0;whiteSpace=wrap;html=1;fillColor=#ffe6cc;strokeColor=#d79b00;" parent="1" vertex="1">
          <mxGeometry x="340" y="320" width="380" height="80" as="geometry" />
        </mxCell>
        <mxCell id="AOcJWjodGGVIR-0718zk-9" value="Source Data Raw" style="rounded=0;whiteSpace=wrap;html=1;" parent="1" vertex="1">
          <mxGeometry x="365" y="330" width="50" height="60" as="geometry" />
        </mxCell>
        <mxCell id="AOcJWjodGGVIR-0718zk-45" style="edgeStyle=orthogonalEdgeStyle;rounded=0;orthogonalLoop=1;jettySize=auto;html=1;exitX=0.25;exitY=0;exitDx=0;exitDy=0;entryX=0.5;entryY=1;entryDx=0;entryDy=0;" parent="1" source="AOcJWjodGGVIR-0718zk-10" target="AOcJWjodGGVIR-0718zk-17" edge="1">
          <mxGeometry relative="1" as="geometry" />
        </mxCell>
        <mxCell id="AOcJWjodGGVIR-0718zk-10" value="Airflow&lt;div&gt;Data API Calls/Distribution&lt;/div&gt;" style="rounded=0;whiteSpace=wrap;html=1;fillColor=#f8cecc;strokeColor=#b85450;" parent="1" vertex="1">
          <mxGeometry x="20" y="560" width="320" height="80" as="geometry" />
        </mxCell>
        <mxCell id="AOcJWjodGGVIR-0718zk-47" style="edgeStyle=orthogonalEdgeStyle;rounded=0;orthogonalLoop=1;jettySize=auto;html=1;exitX=0;exitY=0.5;exitDx=0;exitDy=0;entryX=0.5;entryY=1;entryDx=0;entryDy=0;" parent="1" source="AOcJWjodGGVIR-0718zk-14" target="AOcJWjodGGVIR-0718zk-37" edge="1">
          <mxGeometry relative="1" as="geometry" />
        </mxCell>
        <mxCell id="AOcJWjodGGVIR-0718zk-14" value="Kafka Producers&lt;div&gt;API Calls&lt;/div&gt;" style="rounded=0;whiteSpace=wrap;html=1;fillColor=#e1d5e7;strokeColor=#9673a6;" parent="1" vertex="1">
          <mxGeometry x="-70" y="560" width="90" height="220" as="geometry" />
        </mxCell>
        <mxCell id="AOcJWjodGGVIR-0718zk-15" style="edgeStyle=orthogonalEdgeStyle;rounded=0;orthogonalLoop=1;jettySize=auto;html=1;exitX=1;exitY=0.25;exitDx=0;exitDy=0;entryX=0;entryY=0.25;entryDx=0;entryDy=0;" parent="1" source="AOcJWjodGGVIR-0718zk-17" target="AOcJWjodGGVIR-0718zk-2" edge="1">
          <mxGeometry relative="1" as="geometry">
            <mxPoint x="260" y="280" as="targetPoint" />
            <mxPoint x="80" y="280" as="sourcePoint" />
          </mxGeometry>
        </mxCell>
        <mxCell id="AOcJWjodGGVIR-0718zk-41" style="edgeStyle=orthogonalEdgeStyle;rounded=0;orthogonalLoop=1;jettySize=auto;html=1;exitX=0;exitY=0.25;exitDx=0;exitDy=0;" parent="1" source="AOcJWjodGGVIR-0718zk-17" target="AOcJWjodGGVIR-0718zk-40" edge="1">
          <mxGeometry relative="1" as="geometry">
            <mxPoint x="20" y="240" as="sourcePoint" />
          </mxGeometry>
        </mxCell>
        <mxCell id="AOcJWjodGGVIR-0718zk-17" value="&lt;b&gt;Apache NiFi&lt;/b&gt;&lt;div&gt;Producer/Consumer Integrations +&lt;/div&gt;&lt;div&gt;Data processors&lt;/div&gt;" style="rounded=0;whiteSpace=wrap;html=1;fillColor=#fff2cc;strokeColor=#d6b656;" parent="1" vertex="1">
          <mxGeometry x="40" y="240" width="120" height="80" as="geometry" />
        </mxCell>
        <mxCell id="AOcJWjodGGVIR-0718zk-18" style="edgeStyle=orthogonalEdgeStyle;rounded=0;orthogonalLoop=1;jettySize=auto;html=1;exitX=0.75;exitY=0;exitDx=0;exitDy=0;entryX=0.5;entryY=1;entryDx=0;entryDy=0;" parent="1" source="AOcJWjodGGVIR-0718zk-2" edge="1" target="AOcJWjodGGVIR-0718zk-1">
          <mxGeometry relative="1" as="geometry">
            <mxPoint x="490" y="6" as="targetPoint" />
          </mxGeometry>
        </mxCell>
        <mxCell id="AOcJWjodGGVIR-0718zk-39" style="edgeStyle=orthogonalEdgeStyle;rounded=0;orthogonalLoop=1;jettySize=auto;html=1;exitX=1;exitY=0.5;exitDx=0;exitDy=0;entryX=0;entryY=0.75;entryDx=0;entryDy=0;" parent="1" source="AOcJWjodGGVIR-0718zk-37" target="AOcJWjodGGVIR-0718zk-17" edge="1">
          <mxGeometry relative="1" as="geometry">
            <mxPoint x="-40" y="280" as="targetPoint" />
            <Array as="points">
              <mxPoint x="-80" y="120" />
              <mxPoint x="-80" y="300" />
            </Array>
          </mxGeometry>
        </mxCell>
        <mxCell id="AOcJWjodGGVIR-0718zk-37" value="Kafka Topic&lt;div&gt;Unstructured&lt;/div&gt;" style="rounded=0;whiteSpace=wrap;html=1;fillColor=#e1d5e7;strokeColor=#9673a6;" parent="1" vertex="1">
          <mxGeometry x="-240" y="90" width="120" height="60" as="geometry" />
        </mxCell>
        <mxCell id="AOcJWjodGGVIR-0718zk-43" style="edgeStyle=orthogonalEdgeStyle;rounded=0;orthogonalLoop=1;jettySize=auto;html=1;exitX=1;exitY=0.5;exitDx=0;exitDy=0;entryX=0;entryY=0.5;entryDx=0;entryDy=0;" parent="1" source="AOcJWjodGGVIR-0718zk-40" target="AOcJWjodGGVIR-0718zk-42" edge="1">
          <mxGeometry relative="1" as="geometry" />
        </mxCell>
        <mxCell id="AOcJWjodGGVIR-0718zk-40" value="Kafka Topic&amp;nbsp;&lt;div&gt;Structured&lt;/div&gt;" style="rounded=0;whiteSpace=wrap;html=1;fillColor=#e1d5e7;strokeColor=#9673a6;" parent="1" vertex="1">
          <mxGeometry x="-40" y="90" width="120" height="60" as="geometry" />
        </mxCell>
        <mxCell id="AOcJWjodGGVIR-0718zk-44" style="edgeStyle=orthogonalEdgeStyle;rounded=0;orthogonalLoop=1;jettySize=auto;html=1;exitX=1;exitY=0.5;exitDx=0;exitDy=0;entryX=0.25;entryY=0;entryDx=0;entryDy=0;" parent="1" source="AOcJWjodGGVIR-0718zk-42" target="AOcJWjodGGVIR-0718zk-2" edge="1">
          <mxGeometry relative="1" as="geometry">
            <mxPoint x="290" y="240" as="targetPoint" />
          </mxGeometry>
        </mxCell>
        <mxCell id="AOcJWjodGGVIR-0718zk-42" value="Kafka Connect&lt;div&gt;Sink Connector&lt;/div&gt;" style="rounded=0;whiteSpace=wrap;html=1;fillColor=#e1d5e7;strokeColor=#9673a6;" parent="1" vertex="1">
          <mxGeometry x="170" y="90" width="120" height="60" as="geometry" />
        </mxCell>
        <mxCell id="AOcJWjodGGVIR-0718zk-51" value="" style="edgeStyle=orthogonalEdgeStyle;rounded=0;orthogonalLoop=1;jettySize=auto;html=1;endArrow=none;endFill=0;" parent="1" source="AOcJWjodGGVIR-0718zk-50" target="AOcJWjodGGVIR-0718zk-10" edge="1">
          <mxGeometry relative="1" as="geometry" />
        </mxCell>
        <mxCell id="AOcJWjodGGVIR-0718zk-52" value="OR" style="edgeLabel;html=1;align=center;verticalAlign=middle;resizable=0;points=[];" parent="AOcJWjodGGVIR-0718zk-51" vertex="1" connectable="0">
          <mxGeometry x="-0.1476" y="-1" relative="1" as="geometry">
            <mxPoint as="offset" />
          </mxGeometry>
        </mxCell>
        <mxCell id="AOcJWjodGGVIR-0718zk-50" value="Custom Client Application(s)/Microservices" style="rounded=0;whiteSpace=wrap;html=1;fillColor=#e1d5e7;strokeColor=#9673a6;" parent="1" vertex="1">
          <mxGeometry x="20" y="700" width="320" height="80" as="geometry" />
        </mxCell>
        <mxCell id="AOcJWjodGGVIR-0718zk-53" value="Cluster" style="rounded=0;whiteSpace=wrap;html=1;fillColor=#f5f5f5;fontColor=#333333;strokeColor=#666666;" parent="1" vertex="1">
          <mxGeometry x="340" y="400" width="380" height="380" as="geometry" />
        </mxCell>
        <mxCell id="AOcJWjodGGVIR-0718zk-54" value="&lt;div&gt;Postgresql&lt;/div&gt;" style="rounded=0;whiteSpace=wrap;html=1;fillColor=#d5e8d4;strokeColor=#82b366;" parent="1" vertex="1">
          <mxGeometry x="600" y="240" width="120" height="80" as="geometry" />
        </mxCell>
        <mxCell id="AOcJWjodGGVIR-0718zk-56" style="edgeStyle=orthogonalEdgeStyle;rounded=0;orthogonalLoop=1;jettySize=auto;html=1;exitX=0.5;exitY=0;exitDx=0;exitDy=0;entryX=0.5;entryY=1;entryDx=0;entryDy=0;" parent="1" source="AOcJWjodGGVIR-0718zk-54" target="AOcJWjodGGVIR-0718zk-1" edge="1">
          <mxGeometry relative="1" as="geometry" />
        </mxCell>
        <mxCell id="AOcJWjodGGVIR-0718zk-57" value="Clickhouse&lt;div&gt;Data Backend&lt;/div&gt;" style="rounded=0;whiteSpace=wrap;html=1;" parent="1" vertex="1">
          <mxGeometry x="620" y="330" width="70" height="60" as="geometry" />
        </mxCell>
      </root>
    </mxGraphModel>
  </diagram>
</mxfile>
